<svg xmlns="http://www.w3.org/2000/svg" viewBox="8.695007629394524 102.5039542236328 557.6099853515625 370"> <svg xmlns="http://www.w3.org/2000/svg" viewBox="-4.76837158203125e-7 0.0000209808349609375 227.9996337890625 238.00009155273438" fill="none" height="230" width="220.328125" y="172.5039542236328" x="177.33599237060548" preserveAspectRatio="xMinYMin" style="overflow: visible;"><path fill-rule="evenodd" clip-rule="evenodd" d="M176.716 20.4168C115.765 -21.9489 29.1974 4.43698 0.320526 73.543L0.288881 73.5109C-1.35761 77.5058 4.50008 79.9221 6.1149 76.0238C32.617 8.59307 115.986 -17.9218 175.83 21.7377C195.049 34.1736 210.659 52.4729 220 73.7686C211.166 52.2474 195.904 33.4648 176.716 20.4168ZM42.2197 214.605C107.051 263.181 203.224 232.478 227.797 156.033L227.828 156.064C229.093 152.047 222.99 150.272 221.788 154.195C199.524 228.555 106.799 259.102 43.1685 213.359C23.0548 199.191 7.62169 178.546 0 155.192C7.11568 178.701 22.1693 199.814 42.2197 214.605ZM201.723 156.305C179.14 210.38 109.301 231.257 60.3339 198.028C45.004 187.823 32.8731 173.168 26 156.429C33.3799 172.95 45.8591 187.138 61.2207 196.721C109.047 227.305 175.656 206.335 195.864 153.971C197.416 150.144 203.339 152.416 201.723 156.305ZM154.67 34.9264C111.405 11.2118 54.3766 27.5038 29.4835 70.2152V70.2467C27.3516 73.8951 32.8381 77.0088 34.9073 73.3919C57.3863 31.7184 111.75 14.9861 153.949 36.3418C167.838 43.1353 180.033 53.5773 189 66.4096C180.472 53.2942 168.559 42.3176 154.67 34.9264Z" fill="url(#paint0_linear_25319_8155)" style="fill: #4A73E8; fill-opacity: 1;"></path><linearGradient id="paint0_linear_25319_8155" x1="21.7142" y1="144.067" x2="223.987" y2="146.224" gradientUnits="userSpaceOnUse" style=""><stop stop-color="#E7D7BC"></stop><stop offset="0.510417" stop-color="#9B7E62"></stop><stop offset="1" stop-color="#E7D7BC"></stop></linearGradient></svg> <svg y="260.5449542236328" viewBox="3.8499999046325684 15.5 417.6099853515625 37.439998626708984" x="78.69500762939452" height="37.439998626708984" width="417.6099853515625" style="overflow: visible;"><g fill="#FFFFFF" style=""><path d="M3.85 52.42L3.85 16.02L20.80 16.02Q27.35 16.02 31.20 18.30Q35.05 20.59 35.05 24.54L35.05 24.54Q35.05 27.92 32.29 30.34Q29.54 32.76 25.06 33.44L25.06 33.44Q30.99 34.01 34.11 36.17Q37.23 38.32 37.23 42.64L37.23 42.64Q37.23 47.37 33.33 49.89Q29.43 52.42 22.05 52.42L22.05 52.42L3.85 52.42ZM9.26 32.29L18.82 32.29Q24.08 32.29 26.88 30.39Q29.69 28.50 29.69 24.86L29.69 24.86Q29.69 21.63 27.04 20.07Q24.39 18.51 18.98 18.51L18.98 18.51L9.26 18.51L9.26 32.29ZM9.26 49.92L22.57 49.92Q26.94 49.92 29.38 47.94Q31.82 45.97 31.82 42.38L31.82 42.38Q31.82 38.58 28.47 36.69Q25.12 34.79 18.51 34.79L18.51 34.79L9.26 34.79L9.26 49.92ZM42.48 52.42L42.48 26.94L47.27 26.94L47.27 32.40Q48.26 29.54 50.41 27.98Q52.57 26.42 55.64 26.42L55.64 26.42Q56.84 26.42 57.41 26.62L57.41 26.62L56.94 29.95Q56.16 29.54 54.76 29.54L54.76 29.54Q51.22 29.54 49.24 32.50Q47.27 35.46 47.27 39.99L47.27 39.99L47.27 52.42L42.48 52.42ZM74.78 50.80Q78.31 50.80 80.73 49.09Q83.15 47.37 83.82 44.41L83.82 44.41L87.72 44.41Q86.74 48.41 83.20 50.67Q79.66 52.94 74.57 52.94L74.57 52.94Q70.30 52.94 67.11 51.32Q63.91 49.71 62.17 46.72Q60.42 43.73 60.42 39.78L60.42 39.78Q60.42 35.72 62.14 32.71Q63.86 29.69 67.05 28.05Q70.25 26.42 74.46 26.42L74.46 26.42Q80.81 26.42 84.37 29.85Q87.93 33.28 88.09 39.52L88.09 39.52L65.21 39.52L65.21 39.78Q65.21 44.93 67.70 47.87Q70.20 50.80 74.78 50.80L74.78 50.80ZM74.57 28.55Q70.67 28.55 68.28 30.86Q65.88 33.18 65.36 37.39L65.36 37.39L83.56 37.39Q82.99 33.12 80.68 30.84Q78.36 28.55 74.57 28.55L74.57 28.55ZM103.84 52.94Q98.80 52.94 96.17 50.91Q93.55 48.88 93.55 45.14L93.55 45.14Q93.55 41.13 96.72 39.03Q99.89 36.92 105.98 36.92L105.98 36.92L113.57 36.92L113.57 35.05Q113.57 31.88 111.64 30.21Q109.72 28.55 106.08 28.55L106.08 28.55Q102.65 28.55 100.57 30.13Q98.49 31.72 98.12 34.63L98.12 34.63L94.38 34.63Q94.90 30.68 98.02 28.55Q101.14 26.42 106.34 26.42L106.34 26.42Q112.16 26.42 115.23 28.78Q118.30 31.15 118.30 35.62L118.30 35.62L118.30 44.04Q118.30 48.52 119.08 52.42L119.08 52.42L114.61 52.42Q114.04 50.08 113.88 47.94L113.88 47.94Q110.76 52.94 103.84 52.94L103.84 52.94ZM105.04 50.91Q107.43 50.91 109.38 49.79Q111.33 48.67 112.45 46.80Q113.57 44.93 113.57 42.64L113.57 42.64L113.57 39.05L107.28 39.05Q102.70 39.05 100.49 40.53Q98.28 42.02 98.28 45.08L98.28 45.08Q98.28 47.94 100.00 49.43Q101.71 50.91 105.04 50.91L105.04 50.91ZM134.32 52.94Q130.94 52.94 129.27 51.06Q127.61 49.19 127.61 45.29L127.61 45.29L127.61 29.07L123.03 29.07L123.76 26.94L127.66 26.94L129.53 19.76L132.39 19.76L132.39 26.94L139.52 26.94L138.84 29.07L132.39 29.07L132.39 46.02Q132.39 50.75 135.93 50.75L135.93 50.75Q137.80 50.75 139.57 49.76L139.57 49.76L139.57 52.00Q137.38 52.94 134.32 52.94L134.32 52.94ZM144.51 52.42L144.51 16.90L149.29 16.90L149.29 31.82Q150.64 29.28 153.32 27.85Q156.00 26.42 159.38 26.42L159.38 26.42Q164.37 26.42 167.15 28.89Q169.94 31.36 169.94 35.78L169.94 35.78L169.94 52.42L165.15 52.42L165.15 35.31Q165.15 32.08 163.38 30.32Q161.62 28.55 158.34 28.55L158.34 28.55Q154.23 28.55 151.76 31.25Q149.29 33.96 149.29 38.38L149.29 38.38L149.29 52.42L144.51 52.42ZM189.90 50.80Q193.44 50.80 195.86 49.09Q198.28 47.37 198.95 44.41L198.95 44.41L202.85 44.41Q201.86 48.41 198.33 50.67Q194.79 52.94 189.70 52.94L189.70 52.94Q185.43 52.94 182.23 51.32Q179.04 49.71 177.29 46.72Q175.55 43.73 175.55 39.78L175.55 39.78Q175.55 35.72 177.27 32.71Q178.98 29.69 182.18 28.05Q185.38 26.42 189.59 26.42L189.59 26.42Q195.94 26.42 199.50 29.85Q203.06 33.28 203.22 39.52L203.22 39.52L180.34 39.52L180.34 39.78Q180.34 44.93 182.83 47.87Q185.33 50.80 189.90 50.80L189.90 50.80ZM189.70 28.55Q185.80 28.55 183.40 30.86Q181.01 33.18 180.49 37.39L180.49 37.39L198.69 37.39Q198.12 33.12 195.81 30.84Q193.49 28.55 189.70 28.55L189.70 28.55ZM258.44 52.42L251.94 52.42Q250.17 51.17 247.88 49.19L247.88 49.19Q245.44 50.96 242.32 51.95Q239.20 52.94 235.77 52.94L235.77 52.94Q229.32 52.94 225.68 50.34Q222.04 47.74 222.04 43.16L222.04 43.16Q222.04 39.42 224.30 36.66Q226.56 33.90 231.30 31.88L231.30 31.88Q229.32 29.48 228.38 27.64Q227.45 25.79 227.45 23.66L227.45 23.66Q227.45 19.92 229.89 17.71Q232.34 15.50 236.60 15.50L236.60 15.50Q240.66 15.50 243.05 17.24Q245.44 18.98 245.44 22.00L245.44 22.00Q245.44 25.27 243.15 27.38Q240.86 29.48 236.34 31.62L236.34 31.62Q242.27 38.79 248.66 44.67L248.66 44.67Q250.43 41.86 250.43 38.27L250.43 38.27Q250.43 36.09 249.86 34.22L249.86 34.22L254.28 34.22Q254.44 35.46 254.44 36.30L254.44 36.30Q254.44 39.21 253.47 41.81Q252.51 44.41 250.74 46.49L250.74 46.49Q254.80 50.08 258.44 52.42L258.44 52.42ZM236.18 17.47Q234.05 17.47 232.83 18.93Q231.61 20.38 231.61 22.93L231.61 22.93Q231.61 24.60 232.36 26.18Q233.12 27.77 234.83 29.95L234.83 29.95Q237.43 28.44 238.91 26.44Q240.40 24.44 240.40 22.36L240.40 22.36Q240.40 20.07 239.28 18.77Q238.16 17.47 236.18 17.47L236.18 17.47ZM236.18 50.75Q242.11 50.75 246.06 47.63L246.06 47.63Q239.20 41.50 232.70 33.64L232.70 33.64Q227.50 36.87 227.50 42.74L227.50 42.74Q227.50 46.54 229.81 48.65Q232.13 50.75 236.18 50.75L236.18 50.75ZM293.18 52.94Q285.32 52.94 280.80 49.87Q276.28 46.80 275.81 41.13L275.81 41.13L280.49 41.13Q280.85 45.92 283.95 48.18Q287.04 50.44 293.07 50.44L293.07 50.44Q298.43 50.44 301.26 48.57Q304.10 46.70 304.10 43.21L304.10 43.21Q304.10 41.13 303.00 39.73Q301.91 38.32 299.29 37.23Q296.66 36.14 291.93 35.20L291.93 35.20Q284.39 33.75 280.57 31.43Q276.74 29.12 276.74 24.91L276.74 24.91Q276.74 20.23 281.11 17.86Q285.48 15.50 292.60 15.50L292.60 15.50Q299.83 15.50 303.86 18.07Q307.89 20.64 308.52 25.22L308.52 25.22L303.89 25.22Q303.11 21.42 300.22 19.71Q297.34 17.99 292.24 17.99L292.24 17.99Q287.30 17.99 284.73 19.60Q282.15 21.22 282.15 24.08L282.15 24.08Q282.15 25.79 283.14 26.99Q284.13 28.18 286.60 29.17Q289.07 30.16 293.64 31.10L293.64 31.10Q299.26 32.24 302.67 33.59Q306.07 34.94 307.79 37.10Q309.50 39.26 309.50 42.59L309.50 42.59Q309.50 47.48 305.11 50.21Q300.72 52.94 293.18 52.94L293.18 52.94ZM316.16 52.42L316.16 26.94L320.84 26.94L320.84 31.25Q321.98 28.96 324.35 27.69Q326.72 26.42 329.78 26.42L329.78 26.42Q333.48 26.42 335.89 27.98Q338.31 29.54 339.30 32.50L339.30 32.50Q340.50 29.43 342.91 27.92Q345.33 26.42 348.71 26.42L348.71 26.42Q353.70 26.42 356.36 28.89Q359.01 31.36 359.01 35.93L359.01 35.93L359.01 52.42L354.22 52.42L354.22 35.46Q354.22 32.29 352.43 30.42Q350.64 28.55 347.62 28.55L347.62 28.55Q344.08 28.55 342.00 31.49Q339.92 34.42 339.92 39.57L339.92 39.57L339.92 52.42L335.24 52.42L335.24 37.70Q335.24 33.28 333.45 30.91Q331.66 28.55 328.33 28.55L328.33 28.55Q324.95 28.55 322.95 31.07Q320.94 33.59 320.94 37.91L320.94 37.91L320.94 52.42L316.16 52.42ZM369.30 23.76Q367.74 23.76 366.76 22.88Q365.77 22.00 365.77 20.54L365.77 20.54Q365.77 19.08 366.76 18.20Q367.74 17.32 369.30 17.32L369.30 17.32Q370.86 17.32 371.85 18.20Q372.84 19.08 372.84 20.54L372.84 20.54Q372.84 22.00 371.85 22.88Q370.86 23.76 369.30 23.76L369.30 23.76ZM366.91 52.42L366.91 26.94L371.70 26.94L371.70 52.42L366.91 52.42ZM381.47 52.42L381.47 16.90L386.26 16.90L386.26 52.42L381.47 52.42ZM408.15 50.80Q411.68 50.80 414.10 49.09Q416.52 47.37 417.20 44.41L417.20 44.41L421.10 44.41Q420.11 48.41 416.57 50.67Q413.04 52.94 407.94 52.94L407.94 52.94Q403.68 52.94 400.48 51.32Q397.28 49.71 395.54 46.72Q393.80 43.73 393.80 39.78L393.80 39.78Q393.80 35.72 395.51 32.71Q397.23 29.69 400.43 28.05Q403.62 26.42 407.84 26.42L407.84 26.42Q414.18 26.42 417.74 29.85Q421.30 33.28 421.46 39.52L421.46 39.52L398.58 39.52L398.58 39.78Q398.58 44.93 401.08 47.87Q403.57 50.80 408.15 50.80L408.15 50.80ZM407.94 28.55Q404.04 28.55 401.65 30.86Q399.26 33.18 398.74 37.39L398.74 37.39L416.94 37.39Q416.36 33.12 414.05 30.84Q411.74 28.55 407.94 28.55L407.94 28.55Z" transform="translate(0, 0)"></path></g></svg></svg>